<svg width="868" height="866" viewBox="0 0 868 866" fill="none" xmlns="http://www.w3.org/2000/svg">
<path d="M380.667 2.13341C332.667 8.26674 290.267 20.6667 245.6 41.6001C237.6 45.3334 231.067 48.8001 231.067 49.2001C231.067 49.6001 234.267 50.8001 238.133 51.7334C248.533 54.1334 261.067 60.9334 268.8 68.5334C275.067 74.5334 282.667 84.0001 281.467 84.0001C280.4 84.0001 241.333 70.5334 227.2 65.3334L212 59.7334L206.533 62.6667C197.733 67.6001 176.8 82.2667 163.067 93.0667C146.933 105.867 107.867 144.933 94.8 161.333C36.2667 235.067 5.6 316.667 0.933333 411.6L0 429.2L16.5333 422.533C99.3333 388.8 201.733 367.6 328.4 357.733C366.4 354.8 493.067 354.4 529.733 357.067C668.133 367.333 775.067 389.867 862.267 427.333L867.467 429.6L866.533 411.867C860.8 297.733 816.267 199.467 734 119.733C711.333 97.8667 679.733 73.2001 660.933 62.8001L655.467 59.7334L622.4 70.5334C604.267 76.5334 588.667 81.2001 587.867 80.9334C585.733 80.2667 600.267 65.4667 608.4 60.1334C612.533 57.4667 619.467 54.1334 623.733 52.8001C628.133 51.4667 632.8 49.8667 634.267 49.4667C636 48.8001 631.867 46.2667 618.267 39.7334C577.733 20.5334 535.467 8.26674 487.733 2.00008C479.2 0.933409 470.133 7.52509e-05 467.467 7.52509e-05H462.8L467.067 4.93341C472.933 11.6001 481.067 29.0667 484.4 42.0001C487.867 55.7334 491.067 80.0001 491.067 93.2001V103.733L486.8 104.533C466.133 108.4 410.267 109.733 387.867 106.933C381.333 106.133 375.733 105.067 375.333 104.667C374 103.467 377.733 63.3334 380.4 51.3334C384.933 30.1334 391.467 14.6667 400 5.33341L404.667 7.52509e-05L399.6 0.133409C396.667 0.266742 388.267 1.06674 380.667 2.13341ZM233.467 149.867C247.867 153.733 269.067 158.933 280.4 161.333C291.733 163.6 301.867 165.867 302.8 166.133C303.867 166.4 304.4 170.267 304.533 178.267C304.8 193.733 304.267 224.533 303.6 225.2C302.933 226 259.6 218.667 236.4 213.867C205.333 207.333 158.267 194 154.533 190.533C152.933 189.067 170.533 167.333 181.867 156.933C190.8 148.533 200 142.8 204.8 142.667C206.133 142.667 219.067 145.867 233.467 149.867ZM670.4 145.467C673.733 147.067 680.533 152.133 685.6 156.933C696.933 167.333 714.533 189.067 712.933 190.533C710.933 192.4 687.333 200.8 669.733 205.867C643.067 213.467 598 222.667 570.933 226L563.467 226.933L562.533 220.667C561.2 210.4 561.6 170.8 563.067 167.867C563.867 166.533 565.6 165.333 567.067 165.333C571.467 165.333 616.4 154.8 637.733 148.8C649.067 145.6 659.733 142.8 661.467 142.8C663.067 142.667 667.067 143.867 670.4 145.467ZM418.267 178.133C436.667 178.533 459.467 178.4 468.8 177.733C478.267 177.067 486.133 176.8 486.267 177.067C487.067 177.867 479.2 223.6 476.933 230.8C476 233.867 458.133 234.933 420.8 233.867L390 232.933L385.867 211.467C383.6 199.6 381.467 186.8 380.933 182.8C380.133 176.133 380.267 175.6 382.4 176.533C383.733 176.933 399.867 177.733 418.267 178.133ZM153.733 259.333C188.667 263.2 246.4 268.533 277.467 270.8L299.067 272.4L298.267 278.533C297.867 282 296.8 288.533 296 293.333L294.4 301.867L258.4 305.467C216.8 309.733 168.933 315.6 124.533 322.133C107.333 324.667 92.1333 326.667 90.6667 326.667C88.4 326.667 88.1333 326 89.0667 320.267C90.4 310.267 98.2667 288.133 106.533 270.533L114.267 254.533L118.933 255.2C121.6 255.6 137.2 257.467 153.733 259.333ZM760.933 270.667C769.2 288.133 777.067 310.4 778.4 320.267C779.333 326 779.067 326.667 776.8 326.667C775.333 326.667 760.133 324.667 742.933 322.133C686.8 313.867 591.333 302.667 577.6 302.667H572.667L571.2 294.267C570.4 289.733 569.333 283.2 568.933 279.733L568.133 273.6L575.2 272.8C579.2 272.4 598.267 270.8 617.6 269.333C651.333 266.667 707.867 260.667 735.733 256.8C743.067 255.867 750 254.933 751.2 254.8C752.667 254.667 755.733 259.6 760.933 270.667ZM463.067 278C463.067 278.4 461.333 282.667 459.2 287.333L455.2 296L433.067 295.733L410.8 295.333L407.067 286.267L403.2 277.333H433.067C449.6 277.333 463.067 277.6 463.067 278Z" fill="black"/>
<path d="M375.733 396.8C372.8 397.067 360.8 397.867 349.067 398.667C257.467 404.8 159.2 424.533 71.0667 454.533C46.9334 462.8 5.20002 478.8 3.46668 480.533C2.26668 481.733 7.20002 511.333 12 532C20 566.8 30.9334 597.333 46 626.933C58.1334 651.067 56.5334 650.533 68.5334 634.267C105.467 584.933 156.4 542.667 214.933 513.333C264 488.533 310.667 474.4 371.067 465.733C394.933 462.4 469.6 462.4 493.733 465.733C626.8 484.267 731.467 544.533 805.2 644.8C808.8 649.6 809.067 649.333 817.333 634C832.133 606.667 844 576 852.4 543.333C857.867 522.4 862.667 497.2 863.333 486.267L863.733 479.867L852.4 475.2C753.733 434.667 648.533 409.867 529.2 399.2C508 397.2 390.267 395.467 375.733 396.8Z" fill="black"/>
<path d="M397.733 503.467C364.533 507.467 335.6 513.6 310.4 522C285.067 530.533 251.067 545.2 251.067 547.6C251.067 548.667 286.933 606.667 289.2 609.2C290.533 610.667 292.133 609.867 298.667 604.267C337.467 570.8 387.067 554.267 442.933 556.4C490.933 558.133 533.333 574.133 568 603.6C572.533 607.467 576.533 610.667 576.933 610.667C578.267 610.667 616.533 547.867 615.867 546.8C614.533 544.8 576.533 528.533 559.733 522.933C539.333 516.133 515.067 510.133 493.067 506.533C479.067 504.267 468.8 503.6 439.067 503.333C418.933 503.067 400.267 503.2 397.733 503.467Z" fill="black"/>
<path d="M418.4 569.6C392.667 571.067 370.667 576.933 351.733 587.2C345.867 590.4 341.2 593.467 341.333 594.133C341.6 594.8 345.6 606.667 350.267 620.667C354.933 634.533 360.133 652 361.733 659.333C363.2 666.667 365.067 673.067 365.6 673.733C366.133 674.267 368.667 673.867 371.2 672.8C383.467 667.733 398.8 666.133 433.733 666.133C464 666.133 469.333 666.4 481.6 669.2C489.2 670.8 496.667 672.8 498.133 673.467C499.467 674.267 501.2 674.4 501.733 673.733C502.4 673.2 506.267 661.2 510.267 647.333C514.267 633.333 519.6 615.6 522.133 607.733L526.667 593.467L523.867 591.6C522.267 590.533 516.8 587.6 511.733 584.933C487.2 572.667 454.933 567.333 418.4 569.6ZM461.467 608.4C465.333 609.467 468.8 610.667 469.2 611.067C469.733 611.467 468.8 616 467.333 620.933L464.533 630H433.867H403.2L401.067 622.133C399.733 617.733 398.533 613.333 398.133 612.533C397.467 610.8 402.4 608.933 413.733 606.667C422.267 604.933 453.067 606 461.467 608.4Z" fill="black"/>
<path d="M183.067 590C154.533 612 124.8 641.333 100.667 671.467C89.7333 685.067 86.2667 690.4 87.0667 692C90.1333 697.467 113.467 723.867 128.933 739.333C231.867 841.733 376.4 885.067 519.6 856.533C616.933 837.067 707.067 781.867 772.667 701.6C782.267 690 782.8 692.667 766.133 671.733C744.533 644.4 715.2 615.067 688.4 593.733L674.4 582.533L672.8 595.067C667.067 640.267 644.933 676.667 604.8 706.267C571.6 730.933 529.733 747.467 478.933 756.133C457.867 759.6 407.867 761.067 387.067 758.8C311.6 750.267 252.533 719.2 220.933 671.867C206.133 649.6 198 626.533 194.8 597.467L193.067 582.4L183.067 590Z" fill="black"/>
<path d="M318.4 635.2C316.267 636.133 311.6 638.133 308.267 639.733C301.333 643.067 288.8 646 276.8 647.333C267.067 648.4 265.067 650.267 265.2 658C265.467 673.333 288.267 696.133 318.533 711.6C348.4 726.933 377.2 731.467 398.267 724.267L404.933 722L406.533 712.667C407.333 707.467 408.533 701.733 409.067 699.6L410 696H400.133C372.933 696 355.333 682.133 332.533 642.933C326.667 632.8 325.6 632.267 318.4 635.2Z" fill="black"/>
<path d="M534.933 642.8C512.133 682.267 494.667 696 467.333 696H457.467L458.4 699.6C458.933 701.733 460.133 707.467 460.933 712.667L462.533 722L469.2 724.267C489.867 731.333 518.533 726.933 547.733 712.4C571.333 700.667 593.2 681.733 599.867 667.467C606 654.267 603.467 648.8 590.8 647.333C577.6 645.867 566.4 643.067 557.067 638.667C541.733 631.467 541.6 631.467 534.933 642.8Z" fill="black"/>
</svg>
